HIERARCHY
ROOT hip
{
  OFFSET 0 0 0
  CHANNELS 6 Xposition Yposition Zposition Zrotation Yrotation Xrotation
  JOINT abdomen
  {
    OFFSET 0 20.6881 -0.73152
    CHANNELS 3 Zrotation Xrotation Yrotation
    JOINT chest
    {
      OFFSET 0 11.7043 -0.48768
      CHANNELS 3 Zrotation Xrotation Yrotation
      JOINT neck
      {
        OFFSET 0 22.1894 -2.19456
        CHANNELS 3 Zrotation Xrotation Yrotation
        JOINT head
        {
          OFFSET -0.24384 7.07133 1.2192
          CHANNELS 3 Zrotation Xrotation Yrotation
          JOINT leftEye
          {
            OFFSET 4.14528 8.04674 8.04672
            CHANNELS 3 Zrotation Xrotation Yrotation
            End Site
            {
              OFFSET 1 0 0
            }
          }
          JOINT rightEye
          {
            OFFSET -3.6576 8.04674 8.04672
            CHANNELS 3 Zrotation Xrotation Yrotation
            End Site
            {
              OFFSET 1 0 0
            }
          }
        }
      }
      JOINT rCollar
      {
        OFFSET -2.68224 19.2634 -4.8768
        CHANNELS 3 Zrotation Xrotation Yrotation
        JOINT rShldr
        {
          OFFSET -8.77824 -1.95073 1.46304
          CHANNELS 3 Zrotation Xrotation Yrotation
          JOINT rForeArm
          {
            OFFSET -28.1742 -1.7115 0.48768
            CHANNELS 3 Zrotation Xrotation Yrotation
            JOINT rHand
            {
              OFFSET -22.5879 0.773209 7.07136
              CHANNELS 3 Zrotation Xrotation Yrotation
              JOINT rThumb1
              {
                OFFSET -1.2192 -0.487915 3.41376
                CHANNELS 3 Zrotation Xrotation Yrotation
                JOINT rThumb2
                {
                  OFFSET -3.37035 -0.52449 3.41376
                  CHANNELS 3 Zrotation Xrotation Yrotation
                  End Site
                  {
                    OFFSET -1.78271 -1.18214 1.43049
                  }
                }
              }
              JOINT rIndex1
              {
                OFFSET -7.75947 0.938293 5.60832
                CHANNELS 3 Zrotation Xrotation Yrotation
                JOINT rIndex2
                {
                  OFFSET -2.54057 -0.884171 1.56538
                  CHANNELS 3 Zrotation Xrotation Yrotation
                  End Site
                  {
                    OFFSET -1.62519 -0.234802 1.16502
                  }
                }
              }
              JOINT rMid1
              {
                OFFSET -8.24714 1.18213 3.41376
                CHANNELS 3 Zrotation Xrotation Yrotation
                JOINT rMid2
                {
                  OFFSET -3.10165 -0.590103 1.0647
                  CHANNELS 3 Zrotation Xrotation Yrotation
                  End Site
                  {
                    OFFSET -2.48547 -0.328903 0.83742
                  }
                }
              }
              JOINT rRing1
              {
                OFFSET -8.82822 0.546677 1.51678
                CHANNELS 3 Zrotation Xrotation Yrotation
                JOINT rRing2
                {
                  OFFSET -2.60934 -0.819778 -0.0198488
                  CHANNELS 3 Zrotation Xrotation Yrotation
                  End Site
                  {
                    OFFSET -2.33842 -0.294052 0.168128
                  }
                }
              }
              JOINT rPinky1
              {
                OFFSET -8.27202 -0.0477905 -0.4584
                CHANNELS 3 Zrotation Xrotation Yrotation
                JOINT rPinky2
                {
                  OFFSET -1.82734 -0.647385 -0.700984
                  CHANNELS 3 Zrotation Xrotation Yrotation
                  End Site
                  {
                    OFFSET -1.69225 -0.51767 -0.607171
                  }
                }
              }
            }
          }
        }
      }
      JOINT lCollar
      {
        OFFSET 2.68224 19.2634 -4.8768
        CHANNELS 3 Zrotation Xrotation Yrotation
        JOINT lShldr
        {
          OFFSET 8.77824 -1.95073 1.46304
          CHANNELS 3 Zrotation Xrotation Yrotation
          JOINT lForeArm
          {
            OFFSET 28.1742 -1.7115 0.48768
            CHANNELS 3 Zrotation Xrotation Yrotation
            JOINT lHand
            {
              OFFSET 22.5879 0.773209 7.07136
              CHANNELS 3 Zrotation Xrotation Yrotation
              JOINT lThumb1
              {
                OFFSET 1.2192 -0.487915 3.41376
                CHANNELS 3 Zrotation Xrotation Yrotation
                JOINT lThumb2
                {
                  OFFSET 3.37035 -0.52449 3.41376
                  CHANNELS 3 Zrotation Xrotation Yrotation
                  End Site
                  {
                    OFFSET 1.78271 -1.18214 1.43049
                  }
                }
              }
              JOINT lIndex1
              {
                OFFSET 7.75947 0.938293 5.60832
                CHANNELS 3 Zrotation Xrotation Yrotation
                JOINT lIndex2
                {
                  OFFSET 2.54057 -0.884171 1.56538
                  CHANNELS 3 Zrotation Xrotation Yrotation
                  End Site
                  {
                    OFFSET 1.62519 -0.234802 1.16502
                  }
                }
              }
              JOINT lMid1
              {
                OFFSET 8.24714 1.18213 3.41376
                CHANNELS 3 Zrotation Xrotation Yrotation
                JOINT lMid2
                {
                  OFFSET 3.10165 -0.590103 1.0647
                  CHANNELS 3 Zrotation Xrotation Yrotation
                  End Site
                  {
                    OFFSET 2.48547 -0.328903 0.83742
                  }
                }
              }
              JOINT lRing1
              {
                OFFSET 8.82822 0.546677 1.51678
                CHANNELS 3 Zrotation Xrotation Yrotation
                JOINT lRing2
                {
                  OFFSET 2.60934 -0.819778 -0.0198488
                  CHANNELS 3 Zrotation Xrotation Yrotation
                  End Site
                  {
                    OFFSET 2.33842 -0.294052 0.168128
                  }
                }
              }
              JOINT lPinky1
              {
                OFFSET 8.27202 -0.0477905 -0.4584
                CHANNELS 3 Zrotation Xrotation Yrotation
                JOINT lPinky2
                {
                  OFFSET 1.82734 -0.647385 -0.700984
                  CHANNELS 3 Zrotation Xrotation Yrotation
                  End Site
                  {
                    OFFSET 1.69225 -0.51767 -0.607171
                  }
                }
              }
            }
          }
        }
      }
    }
  }
  JOINT rButtock
  {
    OFFSET -8.77824 4.35084 1.2192
    CHANNELS 3 Zrotation Xrotation Yrotation
    JOINT rThigh
    {
      OFFSET 0 -1.70687 -2.19456
      CHANNELS 3 Zrotation Xrotation Yrotation
      JOINT rShin
      {
        OFFSET 0 -36.8199 0.73152
        CHANNELS 3 Zrotation Xrotation Yrotation
        JOINT rFoot
        {
          OFFSET 0.73152 -45.1104 -5.12064
          CHANNELS 3 Zrotation Xrotation Yrotation
          End Site
          {
            OFFSET -1.1221 -3.69964 12.103
          }
        }
      }
    }
  }
  JOINT lButtock
  {
    OFFSET 8.77824 4.35084 1.2192
    CHANNELS 3 Zrotation Xrotation Yrotation
    JOINT lThigh
    {
      OFFSET 0 -1.70687 -2.19456
      CHANNELS 3 Zrotation Xrotation Yrotation
      JOINT lShin
      {
        OFFSET 0 -36.8199 0.73152
        CHANNELS 3 Zrotation Xrotation Yrotation
        JOINT lFoot
        {
          OFFSET -0.73152 -45.1104 -5.12064
          CHANNELS 3 Zrotation Xrotation Yrotation
          End Site
          {
            OFFSET 1.1221 -3.69964 12.103
          }
        }
      }
    }
  }
}
MOTION
Frames:	5
Frame Time:	0.00833333
-12.9221 81.6801 47.5758 -0.0 -0.0 -0.0 -0.0 0.0 -0.0 0.0 -0.0 -0.0 -7.18087 5.633523 -53.581742 8.784862 2.451204 53.7472 0.0 -0.0 -0.0 0.0 -0.0 -0.0 -142.973735 39.431617 147.390037 18.812347 16.03942 8.544772 3.516196 8.516581 -33.565431 168.954055 -21.177869 143.162356 -166.631339 -4.304864 89.77151 5.151941 -53.961065 13.120902 24.075919 -42.306446 -5.558499 22.169473 -16.00385 4.787949 6.533059 -20.414937 -2.717988 -71.839338 62.820409 61.44865 -114.669357 66.731663 135.092548 -121.544018 -62.834101 -140.839119 -86.171571 -50.468117 -84.540001 4.356263 1.835974 1.970906 142.973735 39.431617 -147.390037 -18.812347 16.03942 -8.544772 -6.932392 19.524083 34.773869 -172.78557 -10.289333 -144.583142 177.936374 -15.50572 -89.547746 -26.544675 -67.694474 -20.256572 117.900883 27.950241 -99.678959 -6.783209 13.935149 13.437472 169.08961 -33.247392 -145.374931 -5.705739 0.683984 -1.828966 75.673382 -72.116249 92.828895 151.115847 -3.083587 -166.425906 -12.988419 44.344312 -10.761472 0.812636 -1.611995 2.686775 -0.0 0.0 -0.0 -0.0 -0.0 -0.0 7.397073 5.294191 87.407088 -5.774708 27.212116 -81.180018 -0.0 0.0 -0.0 -0.0 -0.0 -0.0 -7.507689 6.266531 -95.937971 63.789946 85.973743 11.073513
-13.017000000000001 82.0282 47.3339 -0.0 0.0 -0.0 -0.0 -4.771896 -180.0 -0.0 -4.771896 180.0 7.93712 1.756887 47.545503 -6.661151 4.668205 -47.39558 0.0 -0.0 -0.0 0.0 -0.0 -0.0 -155.54842 -3.80427 161.899949 -147.211654 20.940447 159.069852 7.804592 0.967974 0.618754 -8.337002 25.45769 0.997979 -0.441471 0.435329 0.069465 -66.904457 27.880759 61.170995 88.792192 -75.499035 40.049684 -63.327956 44.897297 54.81699 -0.057679 0.167876 0.032027 -162.157152 7.918008 141.524867 -145.119721 0.310087 -179.225753 -142.372969 -22.948767 -175.671878 -150.577948 31.033784 -146.363897 38.682118 73.847811 -2.615223 80.1661 68.371792 -83.260848 -16.62976 26.758674 -0.711594 175.382169 -58.980781 179.998569 2.119461 6.785185 0.10681 78.030619 38.689342 -42.41267 -93.413223 -52.940684 -36.113581 27.421557 30.63922 -20.098782 3.986429 6.979701 6.403792 10.975806 25.789868 -7.640203 163.863472 2.057993 -143.921929 145.121957 1.974539 179.748654 -22.156105 25.901179 6.462869 160.266772 66.818056 151.114589 146.289284 9.07028 139.454101 -180.0 75.749642 -0.0 -180.0 75.749642 -0.0 4.445166 0.953768 40.468835 69.668738 -60.488321 -25.931468 -180.0 75.749642 -0.0 -180.0 75.749642 -0.0 -7.051593 4.103085 -76.605942 151.788492 -29.336267 -97.90796
-18.0443 81.8198 49.5686 -0.0 -0.0 -0.0 -0.0 0.0 -0.0 0.0 -0.0 -0.0 0.245875 19.608241 -158.802917 7.579128 18.139248 157.548848 -0.0 0.0 -0.0 -0.0 0.0 -0.0 -142.973735 39.431617 147.390037 21.143811 1.283524 7.278457 2.390817 20.691971 -33.122663 167.89726 -23.903594 142.662521 -166.631339 -4.304864 89.77151 -32.888394 -27.866199 7.56491 21.121759 -37.641781 -5.921085 24.409404 -20.010032 5.05825 -39.289155 53.36602 32.877985 -1.41644 11.404898 -0.824539 -145.119721 0.310087 -179.225753 -21.143648 -74.008856 -52.770581 -115.861993 -37.763533 -113.835315 -125.710552 -31.187227 -126.514969 142.973735 39.431617 -147.390037 -18.812347 16.03942 -8.544772 -6.932392 19.524083 34.773869 -172.78557 -10.289333 -144.583142 177.936374 -15.50572 -89.547746 -26.544675 -67.694474 -20.256572 117.900883 27.950241 -99.678959 6.910181 38.422183 3.961346 169.08961 -33.247392 -145.374931 -5.705739 0.683984 -1.828966 75.673382 -72.116249 92.828895 151.115847 -3.083587 -166.425906 -12.988419 44.344312 -10.761472 0.812636 -1.611995 2.686775 -0.0 0.0 -0.0 -0.0 -0.0 -0.0 7.397073 5.294191 87.407088 -5.774708 27.212116 -81.180018 -0.0 0.0 -0.0 -0.0 -0.0 -0.0 -7.507689 6.266531 -95.937971 63.789946 85.973743 11.073513
-18.4169 81.9368 49.4595 -0.0 -0.0 -0.0 -0.0 0.0 -0.0 0.0 -0.0 -0.0 0.245875 19.608241 -158.802917 7.579128 18.139248 157.548848 -0.0 -0.0 0.0 -0.0 -0.0 0.0 -142.973735 39.431617 147.390037 18.812347 16.03942 8.544772 3.516196 8.516581 -33.565431 168.954055 -21.177869 143.162356 -170.594228 -8.27758 89.948904 -69.368901 0.771743 20.755409 174.382035 -63.05997 113.272685 -59.602002 49.578542 54.808158 6.533059 -20.414937 -2.717988 -85.239253 63.201938 74.16393 -0.014868 -1.323148 -0.415899 1.502429 -44.475106 -5.063336 26.973563 80.122588 10.137824 -85.827685 -50.688317 -83.921458 142.973735 39.431617 -147.390037 -18.812347 16.03942 -8.544772 -6.932392 19.524083 34.773869 -172.78557 -10.289333 -144.583142 -66.257853 -46.842795 -22.116955 34.717221 17.122724 0.304508 -9.087734 -15.965515 4.197453 103.36433 42.184835 -73.272559 -2.100045 -6.305437 1.081362 162.11732 7.828442 -141.160609 145.121957 1.974539 179.748654 143.413463 76.670838 -168.31916 46.800482 -48.625216 45.559379 160.954838 69.354277 153.625835 -0.0 0.0 -0.0 -0.0 -0.0 -0.0 7.397073 5.294191 87.407088 -5.764178 27.058788 -81.231577 -0.0 0.0 -0.0 -0.0 -0.0 -0.0 -7.507689 6.266531 -95.937971 63.789946 85.973743 11.073513
-18.6112 82.1374 49.2719 -0.0 -0.0 -0.0 -0.0 0.0 -0.0 0.0 -0.0 -0.0 0.245875 19.608241 -158.802917 7.579128 18.139248 157.548848 -0.0 0.0 -0.0 -0.0 0.0 -0.0 -142.973735 39.431617 147.390037 -151.980852 -2.335175 170.955575 98.459896 -72.117594 69.109733 -168.582406 41.527149 140.892398 -171.670872 -9.353343 89.949324 164.001272 -31.124281 98.612945 45.282556 -63.865437 4.306423 60.55248 -44.034525 16.574873 173.123457 -66.297779 137.614274 -162.832955 -6.731289 140.517275 -145.118942 0.185466 -179.186604 -135.232062 -49.573166 -167.874603 1.134951 3.04054 1.043633 -12.399326 -25.582629 -11.257634 142.973735 39.431617 -147.390037 -18.812347 16.03942 -8.544772 -3.155762 7.282599 33.473924 -168.49089 -22.388323 -142.948502 0.543938 0.536215 -0.086055 -159.182637 -81.973413 -84.004122 -159.641557 -69.973343 -102.396332 -19.01434 4.051829 -0.666109 82.840589 61.110826 -74.532293 10.461514 36.096183 -6.601623 75.673382 -72.116249 92.828895 -19.863279 -32.554978 -2.934516 152.503054 38.522968 147.799022 43.904048 -48.722164 46.332384 -0.0 0.0 -0.0 -0.0 -0.0 -0.0 7.397073 5.294191 87.407088 -5.774708 27.212116 -81.180018 -0.0 0.0 -0.0 -0.0 -0.0 -0.0 -7.507689 6.266531 -95.937971 63.789946 85.973743 11.073513
